<svg width="20" height="21" fill="none" xmlns="http://www.w3.org/2000/svg"><g clip-path="url(#clip0)"><path d="M20 10.33C20 4.876 15.523.456 10 .456S0 4.876 0 10.33c0 5.454 4.477 9.874 10 9.874.059 0 .117 0 .176-.004v-7.683H8.027v-2.472h2.149v-1.82c0-2.11 1.304-3.26 3.21-3.26.915 0 1.7.066 1.927.096v2.207H14c-1.035 0-1.238.486-1.238 1.2v1.573h2.48l-.324 2.472h-2.156v7.31C16.942 18.637 20 14.838 20 10.33z" fill="#CCC"/></g><defs><clipPath id="clip0"><path fill="#fff" transform="translate(0 .456)" d="M0 0h20v19.748H0z"/></clipPath></defs></svg>