<svg width="20" height="20" fill="none" xmlns="http://www.w3.org/2000/svg"><g clip-path="url(#clip0)" fill="#CCC"><path d="M11.914 9.874c0 1.044-.857 1.89-1.914 1.89a1.902 1.902 0 01-1.914-1.89c0-1.044.857-1.89 1.914-1.89s1.914.846 1.914 1.89z"/><path d="M14.476 6.53a1.755 1.755 0 00-.43-.652 1.78 1.78 0 00-.66-.424c-.202-.077-.506-.17-1.066-.195-.605-.027-.787-.033-2.32-.033s-1.715.006-2.32.033c-.56.025-.864.118-1.066.195a1.78 1.78 0 00-.66.424 1.755 1.755 0 00-.43.652c-.079.2-.172.5-.198 1.053-.028.598-.034.777-.034 2.291 0 1.514.006 1.694.034 2.292.026.552.12.852.198 1.052.092.247.238.47.43.652.184.189.41.334.66.424.202.078.506.17 1.066.196.605.027.787.033 2.32.033 1.534 0 1.715-.006 2.32-.033.56-.026.864-.118 1.067-.196.5-.19.896-.581 1.09-1.076.078-.2.172-.5.197-1.052.028-.598.034-.778.034-2.292 0-1.514-.006-1.693-.034-2.29-.025-.554-.119-.854-.198-1.054zM10 12.786c-1.628 0-2.949-1.304-2.949-2.912 0-1.608 1.32-2.911 2.95-2.911 1.628 0 2.948 1.303 2.948 2.911s-1.32 2.912-2.949 2.912zm3.065-5.258a.685.685 0 01-.689-.68c0-.376.309-.68.69-.68.38 0 .688.304.688.68 0 .375-.308.68-.689.68z"/><path d="M10 0C4.478 0 0 4.422 0 9.874c0 5.452 4.478 9.874 10 9.874s10-4.422 10-9.874C20 4.422 15.522 0 10 0zm5.708 12.212c-.028.603-.125 1.015-.267 1.376a2.918 2.918 0 01-1.68 1.658c-.365.14-.782.236-1.393.264-.613.027-.808.034-2.368.034-1.56 0-1.755-.007-2.367-.034-.612-.028-1.029-.124-1.394-.264a2.818 2.818 0 01-1.017-.654 2.776 2.776 0 01-.663-1.004c-.141-.36-.239-.773-.266-1.376-.029-.605-.035-.798-.035-2.338s.006-1.733.034-2.338c.028-.603.125-1.015.267-1.376.144-.378.37-.721.663-1.004a2.816 2.816 0 011.017-.654c.365-.14.782-.236 1.394-.264.612-.027.808-.034 2.367-.034 1.56 0 1.755.007 2.367.035.612.027 1.029.123 1.394.263.383.142.73.365 1.017.654.292.283.519.626.663 1.004.142.36.239.773.267 1.376.028.605.034.798.034 2.338s-.006 1.733-.034 2.338z"/></g><defs><clipPath id="clip0"><path fill="#fff" d="M0 0h20v19.748H0z"/></clipPath></defs></svg>