<svg width="26" height="26" fill="none" xmlns="http://www.w3.org/2000/svg"><path d="M5.877 8.9l-1.473 1.472a8.993 8.993 0 0115.77-2.805l1.303-.988C17.937 1.9 11.274.975 6.594 4.515a10.624 10.624 0 00-3.902 5.916L1.157 8.899 0 10.055l3.518 3.518 3.518-3.518L5.876 8.9zm16.605 3.51l-3.518 3.518 1.157 1.157 1.49-1.49a9 9 0 01-15.917 2.66l-1.328.955a10.57 10.57 0 006.916 4.287 10.611 10.611 0 0012.026-7.942l1.532 1.53L26 15.928l-3.518-3.518zm-.041 2.357l.042-.042.06.062-.102-.02z" fill="#142120"/></svg>