<svg width="26" height="26" fill="none" xmlns="http://www.w3.org/2000/svg"><path d="M24.956 17.567a12.331 12.331 0 01-5.138 1.108c-6.899-.008-12.489-5.598-12.496-12.496A12.33 12.33 0 018.428 1.04L8.902 0 7.86.469A13.358 13.358 0 00.001 12.638C-.001 20.015 5.977 25.998 13.354 26a13.368 13.368 0 0012.174-7.864l.469-1.043-1.04.474zm-5.46 5.959c-6.01 3.392-13.633 1.27-17.025-4.74C-.922 12.778 1.2 5.156 7.21 1.763a13.213 13.213 0 00-.75 4.417c.008 7.374 5.984 13.35 13.358 13.358 1.504.003 2.997-.25 4.416-.75a12.496 12.496 0 01-4.739 4.739z" fill="#142120"/></svg>