<svg width="16" height="16" fill="none" xmlns="http://www.w3.org/2000/svg"><g clip-path="url(#clip0)"><path d="M13.657 11.343a7.97 7.97 0 00-3.04-1.907 4.623 4.623 0 002.008-3.811A4.63 4.63 0 008 1a4.63 4.63 0 00-4.625 4.625c0 1.58.796 2.977 2.008 3.811a7.97 7.97 0 00-3.04 1.907A7.948 7.948 0 000 17h1.25A6.758 6.758 0 018 10.25 6.758 6.758 0 0114.75 17H16a7.948 7.948 0 00-2.343-5.657zM8 9a3.379 3.379 0 01-3.375-3.375A3.379 3.379 0 018 2.25a3.379 3.379 0 013.375 3.375A3.379 3.379 0 018 9z" fill="#fff"/></g><defs><clipPath id="clip0"><path fill="#fff" d="M0 0h16v16H0z"/></clipPath></defs></svg>