<svg width="15" height="15" fill="none" xmlns="http://www.w3.org/2000/svg"><path d="M9.271 4.059A1.848 1.848 0 006.12 2.753a1.847 1.847 0 002.61 2.611 1.85 1.85 0 00.541-1.305zm-3.255 0a1.41 1.41 0 112.82 0 1.41 1.41 0 01-2.82 0z" fill="#fff"/><path d="M14.985 14.7l-1.8-4.718a.22.22 0 00-.206-.143H9.573l.062-.1c1.31-2.17 1.97-4.07 1.96-5.642a4.096 4.096 0 10-8.191-.002c-.01 1.575.65 3.474 1.96 5.644l.063.1H2.021a.22.22 0 00-.207.143L.014 14.7a.22.22 0 00.208.3H14.78a.22.22 0 00.206-.3zM3.845 4.097a3.655 3.655 0 017.31.001c.018 3.136-2.914 7.005-3.655 7.933-.741-.928-3.673-4.795-3.654-7.934zm3.487 8.426a.221.221 0 00.336 0 23.431 23.431 0 001.628-2.241h3.53l.284.741-6.9 2.454-2.46-3.196h1.954a23.445 23.445 0 001.628 2.242zm-1.13 1.425l4.117-1.463 1.597 2.074H4.485l1.716-.61zm-4.03-3.666h1.02l2.58 3.35-2.605.927H.541l1.632-4.277zm10.302 4.277l-1.717-2.23 2.51-.893 1.192 3.123h-1.985z" fill="#fff"/></svg>