<svg width="26" height="26" fill="none" xmlns="http://www.w3.org/2000/svg"><path d="M.867 2.6H0v20.8h2.6v-6.32l.867-.867V5.633C3.467 4.231 2.33 2.6.867 2.6zM2.6 15.854l-.867.867v5.812H.867V3.467C1.8 3.467 2.6 4.658 2.6 5.633v10.22zM25.567 2.6a.433.433 0 00-.433.433v3.9h-.867v-3.9a.433.433 0 10-.867 0v3.9h-.866v-3.9a.433.433 0 00-.867 0V10.4h.867v13h2.6v-13H26V3.033a.433.433 0 00-.433-.433zm-.433 6.933h-.867v13H23.4v-13h-.866V7.8h2.6v1.733zM13 4.333A8.667 8.667 0 1021.666 13 8.676 8.676 0 0013 4.333zM13 20.8a7.8 7.8 0 117.8-7.8 7.81 7.81 0 01-7.8 7.8z" fill="#142120"/><path d="M13 7.785A5.215 5.215 0 1018.214 13a5.221 5.221 0 00-5.216-5.215zm0 9.564a4.349 4.349 0 110-8.697 4.349 4.349 0 010 8.697z" fill="#142120"/></svg>