<svg width="24" height="24" fill="none" xmlns="http://www.w3.org/2000/svg"><path d="M22.594 13.7V2.155a.703.703 0 00-.703-.703h-3.563v-.75a.703.703 0 10-1.406 0v.75h-2.813v-.75a.703.703 0 10-1.406 0v.75H9.891v-.75a.703.703 0 10-1.407 0v.75H5.672v-.75a.703.703 0 10-1.406 0v.75H.703A.703.703 0 000 2.156v18.328c0 .389.315.703.703.703h11.71A6.328 6.328 0 0017.672 24 6.335 6.335 0 0024 17.672a6.299 6.299 0 00-1.406-3.973zM4.266 2.86v.703a.703.703 0 101.406 0v-.704h2.812v.704a.703.703 0 101.407 0v-.704h2.812v.704a.703.703 0 101.406 0v-.704h2.813v.704a.703.703 0 101.406 0v-.704h2.86v2.813H1.405V2.859h2.86zm-2.86 16.92V7.078h19.782v5.335a6.293 6.293 0 00-3.516-1.07 6.328 6.328 0 00-5.31 2.889.698.698 0 00-.315-.076H10.64a.703.703 0 000 1.406h1.065a6.277 6.277 0 00-.323 1.407h-.742a.703.703 0 100 1.406h.742c.054.487.164.958.323 1.406h-10.3zm16.266 2.813a4.927 4.927 0 01-4.922-4.922 4.927 4.927 0 014.922-4.922 4.927 4.927 0 014.922 4.922 4.927 4.927 0 01-4.922 4.922z" fill="#fff"/><path d="M20.484 16.969h-2.109v-2.11a.703.703 0 10-1.406 0v2.813c0 .388.314.703.703.703h2.812a.703.703 0 000-1.406zM6.375 8.531H4.969a.703.703 0 100 1.406h1.406a.703.703 0 100-1.406zm0 2.813H4.969a.703.703 0 100 1.406h1.406a.703.703 0 100-1.406zm0 2.812H4.969a.703.703 0 100 1.406h1.406a.703.703 0 100-1.406zm4.265-4.218h1.407a.703.703 0 100-1.407H10.64a.703.703 0 100 1.406zm0 2.812h1.407a.703.703 0 000-1.406H10.64a.703.703 0 100 1.406zm-4.265 4.219H4.969a.703.703 0 100 1.406h1.406a.703.703 0 100-1.406zm9.891-7.031h1.406a.703.703 0 100-1.407h-1.406a.703.703 0 100 1.406z" fill="#fff"/></svg>