<svg width="20" height="21" fill="none" xmlns="http://www.w3.org/2000/svg"><g clip-path="url(#clip0)" fill="#CCC"><path d="M8.754 12.18l3.253-1.85-3.253-1.85v3.7z"/><path d="M10 .456C4.478.456 0 4.878 0 10.33c0 5.453 4.478 9.874 10 9.874s10-4.421 10-9.874C20 4.878 15.522.456 10 .456zm6.248 9.884s0 2.003-.257 2.968a1.556 1.556 0 01-1.101 1.088c-.978.254-4.89.254-4.89.254s-3.902 0-4.89-.264a1.556 1.556 0 01-1.101-1.088c-.258-.955-.258-2.968-.258-2.968s0-2.002.258-2.968A1.587 1.587 0 015.11 6.264C6.088 6.01 10 6.01 10 6.01s3.912 0 4.89.264c.535.143.957.56 1.101 1.088.268.966.258 2.978.258 2.978z"/></g><defs><clipPath id="clip0"><path fill="#fff" transform="translate(0 .456)" d="M0 0h20v19.748H0z"/></clipPath></defs></svg>