<svg width="33" height="17" viewBox="0 0 33 17" fill="none" xmlns="http://www.w3.org/2000/svg">
<path d="M32.6219 7.58753C32.6215 7.58714 32.6212 7.58669 32.6208 7.58631L25.8851 0.883183C25.3805 0.381029 24.5644 0.382898 24.0621 0.887566C23.5599 1.39217 23.5618 2.20834 24.0664 2.71056L28.5887 7.21093H1.28906C0.577113 7.21093 0 7.78804 0 8.49999C0 9.21194 0.577113 9.78905 1.28906 9.78905H28.5886L24.0665 14.2894C23.5619 14.7916 23.5599 15.6078 24.0622 16.1124C24.5644 16.6172 25.3807 16.6189 25.8852 16.1168L32.6208 9.41368C32.6212 9.41329 32.6215 9.41284 32.622 9.41246C33.1268 8.90856 33.1252 8.08975 32.6219 7.58753Z" fill="white"/>
</svg>
