<svg width="20" height="21" viewBox="0 0 20 21" fill="none" xmlns="http://www.w3.org/2000/svg">
<g clip-path="url(#clip0)">
<path d="M20 10.3301C20 4.87624 15.5234 0.456055 10 0.456055C4.47656 0.456055 0 4.87624 0 10.3301C0 15.784 4.47656 20.2042 10 20.2042C10.0586 20.2042 10.1172 20.2042 10.1758 20.2003V12.5171H8.02734V10.0447H10.1758V8.22416C10.1758 6.11435 11.4805 4.96495 13.3867 4.96495C14.3008 4.96495 15.0859 5.03052 15.3125 5.06138V7.26761H14C12.9648 7.26761 12.7617 7.7536 12.7617 8.46715V10.0408H15.2422L14.918 12.5132H12.7617V19.8223C16.9414 18.6382 20 14.839 20 10.3301Z" fill="#CCCCCC"/>
</g>
<defs>
<clipPath id="clip0">
<rect width="20" height="19.7481" fill="white" transform="translate(0 0.456055)"/>
</clipPath>
</defs>
</svg>
