<svg width="20" height="20" viewBox="0 0 20 20" fill="none" xmlns="http://www.w3.org/2000/svg">
<g clip-path="url(#clip0)">
<path d="M11.9141 9.87384C11.9141 10.9177 11.0571 11.7638 10 11.7638C8.94287 11.7638 8.08594 10.9177 8.08594 9.87384C8.08594 8.83003 8.94287 7.98389 10 7.98389C11.0571 7.98389 11.9141 8.83003 11.9141 9.87384Z" fill="#CCCCCC"/>
<path d="M14.4764 6.53039C14.3844 6.2842 14.2376 6.06137 14.0469 5.87846C13.8617 5.69013 13.6361 5.54519 13.3867 5.45433C13.1843 5.37674 12.8804 5.28438 12.3205 5.25922C11.7149 5.23195 11.5333 5.22607 10.0001 5.22607C8.46677 5.22607 8.28519 5.2318 7.67972 5.25907C7.11987 5.28438 6.81577 5.37674 6.61359 5.45433C6.36411 5.54519 6.13843 5.69013 5.95334 5.87846C5.7626 6.06137 5.61581 6.28405 5.52365 6.53039C5.44507 6.73017 5.35153 7.03045 5.32605 7.58325C5.29843 8.18109 5.29248 8.36038 5.29248 9.87443C5.29248 11.3883 5.29843 11.5676 5.32605 12.1656C5.35153 12.7184 5.44507 13.0185 5.52365 13.2183C5.61581 13.4646 5.76245 13.6873 5.95319 13.8702C6.13843 14.0586 6.36395 14.2035 6.61343 14.2944C6.81577 14.3721 7.11987 14.4645 7.67972 14.4896C8.28519 14.5169 8.46661 14.5226 9.99997 14.5226C11.5335 14.5226 11.7151 14.5169 12.3204 14.4896C12.8802 14.4645 13.1843 14.3721 13.3867 14.2944C13.8875 14.1036 14.2833 13.7128 14.4764 13.2183C14.555 13.0185 14.6486 12.7184 14.6742 12.1656C14.7018 11.5676 14.7076 11.3883 14.7076 9.87443C14.7076 8.36038 14.7018 8.18109 14.6742 7.58325C14.6487 7.03045 14.5552 6.73017 14.4764 6.53039ZM10.0001 12.7857C8.37155 12.7857 7.05136 11.4823 7.05136 9.87428C7.05136 8.26622 8.37155 6.9628 10.0001 6.9628C11.6285 6.9628 12.9487 8.26622 12.9487 9.87428C12.9487 11.4823 11.6285 12.7857 10.0001 12.7857ZM13.0653 7.5281C12.6848 7.5281 12.3762 7.22346 12.3762 6.84769C12.3762 6.47193 12.6848 6.16729 13.0653 6.16729C13.4459 6.16729 13.7544 6.47193 13.7544 6.84769C13.7542 7.22346 13.4459 7.5281 13.0653 7.5281Z" fill="#CCCCCC"/>
<path d="M10 0C4.478 0 0 4.4216 0 9.87406C0 15.3265 4.478 19.7481 10 19.7481C15.522 19.7481 20 15.3265 20 9.87406C20 4.4216 15.522 0 10 0ZM15.7076 12.2116C15.6798 12.8152 15.5826 13.2273 15.4407 13.588C15.1424 14.3496 14.5326 14.9517 13.7613 15.2462C13.3961 15.3863 12.9787 15.4822 12.3676 15.5097C11.7552 15.5373 11.5596 15.5439 10.0002 15.5439C8.44055 15.5439 8.24509 15.5373 7.6326 15.5097C7.02148 15.4822 6.604 15.3863 6.23886 15.2462C5.85556 15.1038 5.50858 14.8807 5.22171 14.5922C4.92966 14.3091 4.70367 13.9663 4.55948 13.588C4.41757 13.2274 4.32037 12.8152 4.2926 12.2118C4.26437 11.607 4.25781 11.4139 4.25781 9.87406C4.25781 8.33425 4.26437 8.14109 4.29245 7.53647C4.32022 6.9329 4.41727 6.52083 4.55917 6.16014C4.70337 5.78181 4.9295 5.43905 5.22171 5.15595C5.50842 4.86742 5.85556 4.64428 6.23871 4.5019C6.604 4.36178 7.02133 4.26596 7.6326 4.23839C8.24493 4.21082 8.44055 4.20419 10 4.20419C11.5594 4.20419 11.7551 4.21082 12.3674 4.23854C12.9787 4.26596 13.396 4.36178 13.7613 4.50175C14.1444 4.64413 14.4916 4.86742 14.7784 5.15595C15.0705 5.4392 15.2966 5.78181 15.4407 6.16014C15.5827 6.52083 15.6798 6.9329 15.7077 7.53647C15.7356 8.14109 15.7422 8.33425 15.7422 9.87406C15.7422 11.4139 15.7356 11.607 15.7076 12.2116Z" fill="#CCCCCC"/>
</g>
<defs>
<clipPath id="clip0">
<rect width="20" height="19.7481" fill="white"/>
</clipPath>
</defs>
</svg>
