<svg width="26" height="26" viewBox="0 0 26 26" fill="none" xmlns="http://www.w3.org/2000/svg">
<path d="M5.87659 8.89944L4.40396 10.3721C5.85368 5.62172 10.8798 2.9461 15.6301 4.39581C17.4405 4.9483 19.0303 6.05794 20.1733 7.56666L21.4766 6.57918C17.9369 1.89961 11.2738 0.975491 6.59419 4.51521C4.65457 5.98231 3.27705 8.07047 2.69163 10.431L1.15683 8.89944L0 10.0554L3.51794 13.5734L7.03587 10.0554L5.87659 8.89944Z" fill="#142120"/>
<path d="M22.4819 12.4102L18.964 15.9281L20.1208 17.0849L21.6106 15.5959C20.1736 20.3539 15.1517 23.0461 10.3937 21.6091C8.50126 21.0375 6.84968 19.8588 5.69403 18.2548L4.36621 19.2104C6.00721 21.5046 8.49707 23.0478 11.2818 23.4966C11.8526 23.5892 12.4298 23.636 13.008 23.6365C17.8921 23.6342 22.1439 20.2983 23.3082 15.555L24.8398 17.0849L25.9999 15.9281L22.4819 12.4102ZM22.441 14.7672L22.4827 14.7254L22.5433 14.7868L22.441 14.7672Z" fill="#142120"/>
</svg>
