<svg width="26" height="26" viewBox="0 0 26 26" fill="none" xmlns="http://www.w3.org/2000/svg">
<path d="M24.9564 17.5675C23.343 18.3016 21.5902 18.6794 19.8176 18.6748C12.9194 18.6672 7.32931 13.0771 7.32172 6.17899C7.31692 4.40641 7.69433 2.65365 8.42825 1.04017L8.90223 0L7.86033 0.46881C3.07744 2.62903 0.00270087 7.38984 0.000977299 12.6379C-0.00144647 20.0151 5.97696 25.9976 13.3542 26C18.6042 25.9966 23.3661 22.9205 25.5278 18.1362L25.9966 17.0935L24.9564 17.5675ZM19.4952 23.5259C13.4854 26.9184 5.8632 24.7967 2.47063 18.7869C-0.921939 12.777 1.19983 5.15492 7.20969 1.76235C6.71018 3.18116 6.45665 4.67485 6.45994 6.17899C6.4685 13.5527 12.4439 19.5281 19.8176 19.5366C21.3217 19.5399 22.8154 19.2864 24.2342 18.7869C23.1155 20.7686 21.4769 22.4072 19.4952 23.5259Z" fill="#142120"/>
</svg>
