<svg width="16" height="16" viewBox="0 0 16 16" fill="none" xmlns="http://www.w3.org/2000/svg">
<g clip-path="url(#clip0)">
<path d="M13.6569 11.3431C12.7855 10.4718 11.7484 9.82678 10.6168 9.43631C11.8288 8.60159 12.625 7.20463 12.625 5.625C12.625 3.07478 10.5502 1 8 1C5.44978 1 3.375 3.07478 3.375 5.625C3.375 7.20463 4.17122 8.60159 5.38319 9.43631C4.25163 9.82678 3.2145 10.4718 2.34316 11.3431C0.832156 12.8542 0 14.8631 0 17H1.25C1.25 13.278 4.27803 10.25 8 10.25C11.722 10.25 14.75 13.278 14.75 17H16C16 14.8631 15.1678 12.8542 13.6569 11.3431ZM8 9C6.13903 9 4.625 7.486 4.625 5.625C4.625 3.764 6.13903 2.25 8 2.25C9.86097 2.25 11.375 3.764 11.375 5.625C11.375 7.486 9.86097 9 8 9Z" fill="white"/>
</g>
<defs>
<clipPath id="clip0">
<rect width="16" height="16" fill="white"/>
</clipPath>
</defs>
</svg>
