<svg width="15" height="15" viewBox="0 0 15 15" fill="none" xmlns="http://www.w3.org/2000/svg">
<path d="M9.27144 4.05854C9.27139 3.69323 9.16307 3.33613 8.96018 3.0324C8.75729 2.72868 8.46894 2.49197 8.1316 2.3522C7.79425 2.21244 7.42305 2.17589 7.06495 2.24719C6.70684 2.31849 6.37791 2.49443 6.11974 2.75277C5.86158 3.0111 5.68577 3.34023 5.61456 3.69853C5.54334 4.05683 5.57992 4.42821 5.71966 4.76571C5.8594 5.10322 6.09603 5.39168 6.39962 5.59463C6.70322 5.79759 7.06014 5.90591 7.42527 5.90591C7.91477 5.90532 8.38404 5.71049 8.73014 5.36416C9.07624 5.01783 9.27091 4.54829 9.27144 4.05854ZM6.01638 4.05854C6.01643 3.77976 6.0991 3.50724 6.25394 3.27547C6.40878 3.04369 6.62884 2.86305 6.88628 2.7564C7.14373 2.64975 7.427 2.62187 7.70029 2.67629C7.97357 2.7307 8.22459 2.86498 8.4216 3.06213C8.61861 3.25928 8.75277 3.51045 8.80711 3.78388C8.86146 4.05731 8.83354 4.34073 8.7269 4.59829C8.62025 4.85585 8.43967 5.07599 8.20799 5.23087C7.9763 5.38575 7.70391 5.46841 7.42527 5.46841C7.0517 5.46798 6.69355 5.3193 6.42942 5.05498C6.16529 4.79067 6.01674 4.43231 6.01638 4.05854Z" fill="white"/>
<path d="M14.9854 14.7005L13.1854 9.98156C13.1695 9.93978 13.1412 9.90383 13.1044 9.87846C13.0675 9.85309 13.0239 9.8395 12.9792 9.83949H9.57258C9.5934 9.80554 9.61409 9.77261 9.63491 9.73855C10.9457 7.56835 11.6053 5.66994 11.5958 4.0968C11.596 3.01045 11.1647 1.96851 10.3966 1.20021C9.62863 0.431914 8.58688 0.000184108 7.50057 5.88697e-08C6.41425 -0.00018399 5.37235 0.431193 4.60408 1.19923C3.83581 1.96727 3.4041 3.00906 3.40391 4.09542C3.39445 5.66994 4.05406 7.56861 5.36484 9.73855C5.38565 9.77299 5.40635 9.80592 5.42716 9.83949H2.02059C1.97587 9.8395 1.9322 9.85309 1.89537 9.87846C1.85854 9.90383 1.83027 9.93978 1.81431 9.98156L0.0146279 14.7005C0.00180462 14.7339 -0.00268577 14.7699 0.00154475 14.8055C0.00577527 14.8411 0.0185995 14.8751 0.0389093 14.9045C0.0592191 14.934 0.0864037 14.9581 0.118114 14.9748C0.149825 14.9914 0.185108 15.0001 0.220915 15H14.7791C14.8149 15.0001 14.8502 14.9914 14.8819 14.9748C14.9136 14.9581 14.9408 14.934 14.9611 14.9045C14.9814 14.8751 14.9942 14.8411 14.9985 14.8055C15.0027 14.7699 14.9982 14.7339 14.9854 14.7005ZM3.84563 4.0958C3.84572 3.61588 3.94032 3.14068 4.12405 2.69733C4.30777 2.25397 4.57702 1.85115 4.91642 1.51186C5.25582 1.17256 5.65872 0.903445 6.10212 0.719865C6.54552 0.536286 7.02073 0.441841 7.50063 0.441924C7.98053 0.442007 8.45571 0.536616 8.89905 0.720348C9.34239 0.90408 9.74519 1.17334 10.0845 1.51275C10.4238 1.85216 10.6929 2.25508 10.8764 2.69849C11.06 3.14191 11.1544 3.61714 11.1544 4.09706C11.1733 7.23349 8.24112 11.1019 7.5 12.0295C6.75888 11.1022 3.82658 7.23488 3.84563 4.0958ZM7.33182 12.5216C7.35254 12.5459 7.37832 12.5655 7.40736 12.5789C7.4364 12.5924 7.46801 12.5993 7.5 12.5993C7.53199 12.5993 7.5636 12.5924 7.59264 12.5789C7.62168 12.5655 7.64746 12.5459 7.66818 12.5216C8.25441 11.8074 8.79789 11.0592 9.29577 10.2808H12.8269L13.1095 11.0221L6.20916 13.4763L3.74962 10.2805H5.70398C6.20193 11.0589 6.74549 11.8073 7.33182 12.5216ZM6.20147 13.9473H6.20273L10.3193 12.4837L11.9159 14.5584H4.48455L6.20147 13.9473ZM2.17288 10.2805H3.19233L5.77148 13.6319L3.16697 14.5583H0.541385L2.17288 10.2805ZM12.4737 14.5584L10.7567 12.3274L13.2675 11.4345L14.4589 14.5584H12.4737Z" fill="white"/>
</svg>
