<svg width="26" height="26" viewBox="0 0 26 26" fill="none" xmlns="http://www.w3.org/2000/svg">
<path d="M0.866667 2.59998H0V23.4H2.6V17.0794L3.46667 16.2127V5.63331C3.46667 4.23061 2.3309 2.59998 0.866667 2.59998ZM2.6 15.8539L1.73333 16.7206V22.5333H0.866667V3.46664C1.80007 3.46664 2.6 4.65831 2.6 5.63331V15.8539Z" fill="#142120"/>
<path d="M25.567 2.59998C25.3277 2.59998 25.1337 2.794 25.1337 3.03331V6.93331H24.267V3.03331C24.267 2.794 24.073 2.59998 23.8337 2.59998C23.5944 2.59998 23.4003 2.794 23.4003 3.03331V6.93331H22.5337V3.03331C22.5337 2.794 22.3396 2.59998 22.1003 2.59998C21.861 2.59998 21.667 2.794 21.667 3.03331V10.4H22.5337V23.4H25.1337V10.4H26.0003V3.03331C26.0003 2.794 25.8063 2.59998 25.567 2.59998ZM25.1337 9.53331H24.267V22.5333H23.4003V9.53331H22.5337V7.79998H25.1337V9.53331Z" fill="#142120"/>
<path d="M12.9997 4.33337C8.21318 4.33337 4.33301 8.21355 4.33301 13C4.33301 17.7865 8.21318 21.6667 12.9997 21.6667C17.7862 21.6667 21.6663 17.7865 21.6663 13C21.6609 8.21582 17.7839 4.33884 12.9997 4.33337ZM12.9997 20.8C8.69185 20.8 5.19967 17.3079 5.19967 13C5.19967 8.69222 8.69185 5.20004 12.9997 5.20004C17.3075 5.20004 20.7997 8.69222 20.7997 13C20.7946 17.3058 17.3054 20.795 12.9997 20.8Z" fill="#142120"/>
<path d="M12.9993 7.78491C10.1191 7.78491 7.78418 10.1198 7.78418 13.0001C7.78418 15.8803 10.1191 18.2152 12.9993 18.2152C15.8796 18.2152 18.2145 15.8803 18.2145 13.0001C18.2112 10.1212 15.8782 7.78827 12.9993 7.78491ZM12.9993 17.3486C10.5978 17.3486 8.65085 15.4017 8.65085 13.0001C8.65085 10.5985 10.5978 8.65158 12.9993 8.65158C15.4009 8.65158 17.3478 10.5985 17.3478 13.0001C17.345 15.4005 15.3997 17.3457 12.9993 17.3486Z" fill="#142120"/>
</svg>
