<svg width="20" height="21" viewBox="0 0 20 21" fill="none" xmlns="http://www.w3.org/2000/svg">
<g clip-path="url(#clip0)">
<path d="M8.75439 12.1802L12.0073 10.3303L8.75439 8.48047V12.1802Z" fill="#CCCCCC"/>
<path d="M10 0.456055C4.478 0.456055 0 4.87765 0 10.3301C0 15.7826 4.478 20.2042 10 20.2042C15.522 20.2042 20 15.7826 20 10.3301C20 4.87765 15.522 0.456055 10 0.456055ZM16.2485 10.3402C16.2485 10.3402 16.2485 12.3427 15.9912 13.3083C15.847 13.8369 15.425 14.2536 14.8897 14.3958C13.9117 14.65 10 14.65 10 14.65C10 14.65 6.09848 14.65 5.11032 14.3857C4.57504 14.2435 4.15298 13.8266 4.00879 13.2981C3.75137 12.3427 3.75137 10.3301 3.75137 10.3301C3.75137 10.3301 3.75137 8.32776 4.00879 7.36214C4.15283 6.8336 4.58527 6.40661 5.11032 6.26438C6.08826 6.01021 10 6.01021 10 6.01021C10 6.01021 13.9117 6.01021 14.8897 6.27448C15.425 6.41671 15.847 6.8336 15.9912 7.36214C16.2589 8.32776 16.2485 10.3402 16.2485 10.3402Z" fill="#CCCCCC"/>
</g>
<defs>
<clipPath id="clip0">
<rect width="20" height="19.7481" fill="white" transform="translate(0 0.456055)"/>
</clipPath>
</defs>
</svg>
